<?xml version="1.0" encoding="UTF-8"?>
<svg width="32px" height="28px" viewBox="0 0 32 28" version="1.1" xmlns="http://www.w3.org/2000/svg" xmlns:xlink="http://www.w3.org/1999/xlink">
    <!-- Generator: Sketch 58 (84663) - https://sketch.com -->
    <title>twitter</title>
    <desc>Created with Sketch.</desc>
    <g id="Page-1" stroke="none" stroke-width="1" fill="none" fill-rule="evenodd">
        <g id="khune-bemun" transform="translate(-142.000000, -3775.000000)" fill="#000000" fill-rule="nonzero">
            <g id="twitter" transform="translate(142.000000, 3775.000000)">
                <path d="M32,3.31476923 C30.81,3.87692308 29.542,4.24953846 28.22,4.43046154 C29.58,3.556 30.618,2.18184615 31.106,0.525538462 C29.838,1.33969231 28.438,1.91476923 26.946,2.23569231 C25.742,0.855076923 24.026,0 22.154,0 C18.522,0 15.598,3.17476923 15.598,7.06676923 C15.598,7.62676923 15.642,8.16523077 15.75,8.67784615 C10.296,8.39138462 5.47,5.57630769 2.228,1.288 C1.662,2.34553846 1.33,3.556 1.33,4.85907692 C1.33,7.30584615 2.5,9.47476923 4.244,10.7304615 C3.19,10.7089231 2.156,10.3793846 1.28,9.86030769 C1.28,9.88184615 1.28,9.90984615 1.28,9.93784615 C1.28,13.3710769 3.554,16.2227692 6.536,16.8796923 C6.002,17.0369231 5.42,17.1123077 4.816,17.1123077 C4.396,17.1123077 3.972,17.0864615 3.574,16.9916923 C4.424,19.7895385 6.836,21.8464615 9.704,21.9132308 C7.472,23.7935385 4.638,24.9264615 1.57,24.9264615 C1.032,24.9264615 0.516,24.9006154 0,24.8295385 C2.906,26.8476923 6.35,28 10.064,28 C22.136,28 28.736,17.2307692 28.736,7.896 C28.736,7.58369231 28.726,7.28215385 28.712,6.98276923 C30.014,5.98769231 31.108,4.74492308 32,3.31476923 Z" id="Path"></path>
            </g>
        </g>
    </g>
</svg>