<?xml version="1.0" encoding="UTF-8"?>
<svg width="310px" height="184px" viewBox="0 0 310 184" version="1.1" xmlns="http://www.w3.org/2000/svg" xmlns:xlink="http://www.w3.org/1999/xlink">
    <!-- Generator: Sketch 58 (84663) - https://sketch.com -->
    <title>Group 33</title>
    <desc>Created with Sketch.</desc>
    <defs>
        <polygon id="path-1" points="0 0.547658416 99.8810811 0.547658416 99.8810811 112.976393 0 112.976393"></polygon>
        <polygon id="path-3" points="0.0155474193 0.496898246 283.72622 0.496898246 283.72622 96 0.0155474193 96"></polygon>
    </defs>
    <g id="Page-1" stroke="none" stroke-width="1" fill="none" fill-rule="evenodd">
        <g id="khune-bemun" transform="translate(-881.000000, -1046.000000)">
            <g id="Group-33" transform="translate(881.000000, 1046.000000)">
                <g id="Group-3">
                    <mask id="mask-2" fill="white">
                        <use xlink:href="#path-1"></use>
                    </mask>
                    <g id="Clip-2"></g>
                    <path d="M95.2691892,27.8801208 C92.0421622,24.0672099 87.5572973,21.8799327 82.9654054,21.8799327 L82.9578378,21.8799327 L82.9491892,21.8799327 C79.84,21.8866455 76.8837838,22.7621158 74.3367568,24.3278931 C72.9832432,23.495497 71.5113514,22.8650465 69.9648649,22.4499673 C70.5286486,20.5921802 70.82,18.7064228 70.82,16.810596 C70.82,7.99491782 63.9708108,0.547546535 55.8632432,0.547546535 L55.8551351,0.547546535 L55.847027,0.547546535 C53.4221622,0.553140594 51.1027027,1.1561802 49.0432432,2.24814059 C46.9789189,1.15338317 44.6513514,0.549784158 42.2189189,0.547546535 C34.1102703,0.547546535 27.2654054,7.99491782 27.2654054,16.810596 C27.2654054,23.037903 30.3610811,29.1600416 36.2167568,34.5146752 C37.4535135,35.6457941 43.8005405,41.2191554 48.8227027,41.3791455 C48.8697297,42.3827198 48.98,43.3846158 49.1654054,44.382596 C44.8513514,44.9196257 40.8443243,46.681195 37.5427027,49.4015861 C33.5416216,46.1050069 28.507027,44.2108584 23.1405405,44.2063832 C16.9405405,44.2063832 10.8535135,47.2036802 6.43351351,52.4302099 C2.34486486,57.2657149 0,63.604903 0,69.8232594 C0,83.1818733 8.72540541,93.9649822 16.0454054,100.658274 C21.4605405,105.609576 31.6540541,112.976393 37.5416216,112.976393 C43.4297297,112.976393 53.6232432,105.609576 59.0389189,100.658274 C66.3583784,93.9649822 75.0837838,83.1818733 75.0837838,69.8232594 C75.0837838,69.6666257 75.0762162,69.5094327 75.072973,69.3533584 C80.7994595,68.790596 88.3578378,62.022903 89.2345946,61.2212743 C96.2,54.8518782 99.8810811,47.6450515 99.8810811,40.3783683 C99.8810811,35.8986455 98.2005405,31.343403 95.2691892,27.8801208" id="Fill-1" fill="#FFFFFF" mask="url(#mask-2)"></path>
                </g>
                <path d="M52.3996213,51 C46.0823227,51.0139569 40.3969163,54.9576236 37.9997295,60.9892453 C35.5998377,54.9509243 29.9041522,51.0055828 23.5798206,51 C14.980028,51 8,59.8537104 8,68.7492916 C8,88.19072 33.9995492,104 37.9997295,104 C41.9999098,104 68,88.19072 68,68.7492916 C68,59.8537104 61.019972,51 52.3996213,51" id="Fill-4" fill="#17C37B"></path>
                <path d="M74.0002706,35.0309811 C72.5600974,31.3857529 69.1428657,29.0033721 65.3484072,29 C60.1884631,29 56,34.345885 56,39.7164986 C56,51.4547402 71.6005232,61 74.0002706,61 C76.400018,61 92,51.4547402 92,39.7164986 C92,34.345885 87.8120781,29 82.6402273,29 C78.8495573,29.0084302 75.4382789,31.389687 74.0002706,35.0309811 Z" id="Fill-6" fill="#EFD30A"></path>
                <path d="M55.7202663,8 C52.7719448,8.00693272 50.1186686,9.94173851 49.0002663,12.9002755 C47.8797337,9.93827215 45.2221969,8.00288863 42.27068,8 C38.2572135,8 35,12.343925 35,16.7074927 C35,26.2451782 47.133067,34 49.0002663,34 C50.866933,34 63,26.2451782 63,16.7074927 C63,12.343925 59.7427865,8 55.7202663,8" id="Fill-8" fill="#FF4431"></path>
                <g id="Group-12" transform="translate(26.000000, 88.000000)">
                    <mask id="mask-4" fill="white">
                        <use xlink:href="#path-3"></use>
                    </mask>
                    <g id="Clip-11"></g>
                    <path d="M283.161662,55.6918456 C282.709306,54.2181614 281.862685,52.5165474 280.287776,51.0086175 C281.109117,48.5333895 281.044033,45.807214 280.025291,43.3617404 C278.740836,40.2785123 276.326836,38.1300211 272.848912,36.9774596 C272.043708,36.7102316 271.148677,36.4783719 270.094973,36.2695298 C270.317655,34.511214 270.652215,32.7759158 271.160511,31.107986 L271.199238,30.9805474 L271.385882,30.3674947 L271.478935,29.7303018 L271.498298,29.5983719 C272.079208,25.5916351 271.022276,22.8059509 270.033655,21.1739509 C268.716389,19.0001965 266.675139,17.4254596 264.284806,16.7394246 C263.420435,16.4918456 262.532397,16.367214 261.642208,16.367214 C259.542867,16.367214 257.487094,17.0650386 255.650776,18.3731088 C254.700882,17.1458807 253.488503,16.131986 252.057208,15.4094596 L251.955548,15.3583719 L251.852814,15.3100912 L251.770518,15.2713544 L251.675314,15.2270035 L251.579571,15.1854596 C250.256927,14.6094596 248.871889,14.3175298 247.463185,14.3175298 L247.462647,14.3175298 C245.442374,14.3175298 243.468359,14.9277754 241.753602,16.0820211 C239.812397,17.3889684 237.0832,19.9411088 235.807889,26.9844772 C235.380814,29.3434947 235.070458,32.2936702 234.849389,36.1954246 C234.705238,36.2206877 234.560548,36.2459509 234.414245,36.2717754 L234.021056,36.3402667 L233.839253,36.3717053 L233.659064,36.4126877 L233.510609,36.4458105 L233.497162,36.4491789 C233.495011,36.4491789 233.493397,36.4497404 233.491783,36.4497404 C233.055026,36.5041965 232.62795,36.5889684 232.211094,36.6984421 C231.606518,31.8922667 230.283874,27.820407 228.267905,24.5743719 C227.668708,23.6087579 227.0012,22.7245474 226.281518,21.9194947 C227.31048,19.8855298 227.89623,17.5714246 227.89623,15.1158456 C227.89623,7.05521404 221.61273,0.496898246 213.889867,0.496898246 C206.166465,0.496898246 199.883503,7.05521404 199.883503,15.1158456 C199.883503,17.484407 200.42945,19.7210386 201.391715,21.7022316 C200.143298,20.5985123 198.789458,19.7328281 197.33073,19.1141614 C195.70042,18.4213895 193.987276,18.0705123 192.240245,18.0705123 C190.262465,18.0705123 188.314268,18.5179509 186.449442,19.4010386 L186.302602,19.471214 L186.157374,19.5475649 L186.039041,19.6098807 L185.896503,19.6851088 L185.757192,19.7659509 C183.662155,20.9830737 181.782806,22.6156351 180.150344,24.6052491 C180.155185,24.4497404 180.162177,24.2942316 180.162177,24.1376 C180.162177,16.2453895 174.010458,9.82517895 166.449495,9.82517895 C159.694276,9.82517895 154.068064,14.9513544 152.944435,21.6713544 C152.927761,21.6685474 152.910011,21.6646175 152.893874,21.6618105 C152.046715,21.516407 151.180192,21.4423018 150.316359,21.4423018 C142.172336,21.4411789 134.369867,27.8619509 129.953882,38.1990737 C127.069238,44.9527579 126.024677,52.5468632 127.013298,59.5834947 C127.677041,64.3009684 129.217526,68.6714947 131.551382,72.5704421 C130.489071,72.5328281 129.368132,72.5025123 128.176192,72.4823018 C126.875064,72.4598456 125.485185,72.4486175 124.044745,72.4486175 C117.225518,72.4486175 110.826912,72.7040561 109.517177,72.7590737 C109.066973,72.7753544 108.621609,72.8230737 108.180011,72.8865123 C108.176245,72.8786526 108.171942,72.8713544 108.168177,72.8634947 C109.547836,71.7305825 110.757526,70.3787228 111.749912,68.8494596 C113.104829,66.764407 114.0402,64.4093193 114.551185,61.8088982 C117.604185,61.0038456 120.272602,58.7896702 122.099776,55.4644772 L122.196594,55.2870737 L122.285344,55.1051789 L122.359571,54.9541614 L122.448859,54.7705825 L122.529003,54.5825123 C124.752056,49.3962667 125.411495,43.8501614 124.436321,38.5437754 C123.449314,33.1733895 120.841677,28.3099509 116.894723,24.4789333 C112.049511,19.7771789 105.793442,17.187986 99.2791924,17.1874246 C94.9858439,17.1874246 90.6731318,18.3338105 86.807397,20.5030737 L86.7025106,20.5620211 L86.5997758,20.6243368 L86.5131773,20.675986 L86.4093667,20.7388632 L86.3071697,20.8045474 C83.8065712,22.4202667 81.6044955,24.3891088 79.7407455,26.6493193 C77.5919197,24.6462316 75.0622758,23.3230035 72.3029576,22.8003368 L72.1555788,22.7722667 L72.0071242,22.7503719 L71.8817985,22.7318456 L71.7295788,22.7093895 L71.5768212,22.6931088 C71.0357152,22.6352842 70.4881545,22.6055298 69.9492,22.6055298 C65.3433439,22.6055298 61.0489197,24.7237053 57.7856091,28.5154246 C57.0390333,27.5509333 56.2279121,26.6330386 55.3398742,25.7757754 C51.9636091,22.5145825 47.6874727,20.1690386 42.6297985,18.8048281 L42.5851545,18.7930386 L42.5405106,18.7812491 L42.5023212,18.7717053 L42.4517606,18.758793 L42.4022758,18.7464421 C42.2661924,18.7138807 42.1322606,18.6790737 41.9999424,18.6448281 L41.9596015,18.6347228 C40.9510788,18.3759158 39.4261924,17.9840561 37.5823439,17.9840561 C35.8503742,17.9840561 34.2076924,18.3265123 32.6774273,19.0052491 C30.6200409,17.2693895 28.1022303,16.3526175 25.3859424,16.3520561 C20.049647,16.3514947 15.4475561,19.8855298 12.6979197,21.996407 L12.4859955,22.159214 L12.4402758,22.1945825 L12.3950939,22.2305123 C7.22876818,26.3242667 3.31838939,32.3756351 1.38310152,39.2691088 C-0.527443939,46.0750035 -0.433315152,53.4327579 1.64773788,59.9860211 C3.43941212,65.6275649 6.63925303,70.4202667 10.9024803,73.8448281 C15.6508742,77.6606877 21.3706773,79.628407 27.9021394,79.6929684 C28.0419879,79.6946526 28.1829121,79.6957754 28.3232985,79.6957754 C33.7833061,79.6957754 39.1862985,78.3540211 44.0293591,75.9551439 C46.9521924,78.191214 51.0906318,79.4408982 55.7997606,79.4408982 C59.1405258,79.4408982 62.5619727,78.8037053 65.7709576,77.6096 C68.7422,79.110793 71.9129955,79.8900211 75.1295106,79.8900211 C75.7604424,79.8900211 76.3994424,79.8597053 77.0298364,79.7996351 C78.7499727,79.6368281 80.4609652,79.2449684 82.139147,78.6425825 C82.1337682,78.8020211 82.1267758,78.9614596 82.1267758,79.1225825 C82.1267758,87.014793 88.2784955,93.4350035 95.8394576,93.4350035 C97.7602227,93.4350035 99.5879348,93.0195649 101.248905,92.2723368 C101.72923,92.7613193 102.258503,93.2166175 102.836185,93.6281263 L103.176662,93.871214 L104.813965,95.0389333 L106.786367,95.2550737 L107.195692,95.2994246 C108.937344,95.4897404 110.78173,95.5818105 112.835889,95.5818105 C114.948139,95.5818105 116.963033,95.4869333 118.911768,95.3948632 L118.951571,95.3931789 C120.614692,95.3145825 122.185298,95.2404772 123.595617,95.2404772 C123.849495,95.2404772 124.096382,95.2432842 124.331435,95.2483368 L124.48742,95.2539509 L124.557344,95.2567579 C128.690942,95.4117053 131.678321,95.523986 135.5532,95.718793 L135.715639,95.727214 L136.511162,95.7670737 L136.704798,95.7356351 C136.83873,95.7502316 136.974276,95.7648281 137.07217,95.7754947 L137.074321,95.7760561 L137.08992,95.7771789 C137.99248,95.8765474 139.116647,96.0000561 140.348927,96.0000561 C146.514632,96.0000561 149.535897,92.6299509 150.798836,90.5898105 C152.349003,88.1016702 152.821261,85.1335298 152.19248,82.3635649 C153.747488,81.3446175 155.020109,79.8995649 155.843602,78.1294596 C155.873723,78.0648982 155.904382,77.996407 155.935041,77.9262316 C156.25723,78.2411789 156.593405,78.5359158 156.943564,78.8110035 C159.0187,80.4430035 161.487026,81.3058807 164.082291,81.3058807 C164.558314,81.3058807 165.041867,81.2761263 165.520579,81.2177404 L165.63192,81.2042667 L165.743261,81.1874246 L165.833624,81.1739509 L165.945503,81.1565474 L166.056844,81.1363368 C166.769533,81.0055298 167.463397,80.806793 168.138435,80.5463018 C168.444488,80.847214 168.762912,81.135214 169.10823,81.3996351 C171.413579,83.1658105 174.263261,84.0606877 177.57767,84.0606877 C180.066973,84.0606877 182.817685,83.5565474 185.753427,82.5606175 C187.557473,81.9492491 189.321715,81.1896702 190.943958,80.3380211 C194.169617,81.7555649 197.576003,82.4910035 200.997988,82.4910035 C205.478518,82.4910035 209.842329,81.2806175 213.967859,78.8935298 C218.945927,76.0129684 223.323185,71.468407 226.557988,65.8953544 C227.726261,67.0917053 229.1667,68.0180211 230.799162,68.5502316 C232.428935,69.0824421 234.143692,69.3738105 236.019276,69.4355649 C236.64698,73.5186526 237.826011,77.1093895 240.702586,79.5475649 C242.512011,81.0824421 244.781859,81.9284772 247.092586,81.9284772 C247.499761,81.9284772 247.911238,81.9026526 248.315723,81.8504421 C250.383329,81.5888281 252.25945,80.6743018 253.75045,79.3067228 C254.120511,79.6463719 254.52392,79.9680561 254.963367,80.2656 C256.629177,81.391214 258.546715,81.9857404 260.511048,81.9857404 C261.571745,81.9857404 262.62545,81.8122667 263.642041,81.4709333 C267.217859,80.271214 269.878745,77.1144421 270.581753,73.2334596 C270.763018,72.236407 270.868442,71.2646175 270.917927,70.3242667 C271.070685,70.3270737 271.221291,70.3287579 271.370283,70.3287579 C273.041473,70.3287579 278.126579,70.3287579 281.494776,65.9206175 C283.689859,63.0479158 284.306806,59.2393544 283.161662,55.6918456" id="Fill-10" fill="#FFFFFF" mask="url(#mask-4)"></path>
                </g>
                <path d="M126.596754,145.936552 L126.594594,146.018019 C126.584872,148.27802 125.775271,149.882866 124.315396,150.535173 C122.446669,151.370354 119.832612,150.559101 117.811038,148.515016 L117.65063,148.372591 C116.581783,147.540258 116.581783,147.540258 118.282001,142.842509 C118.568791,142.051195 118.891227,141.158475 119.247149,140.147257 L119.267133,140.088578 C120.089697,137.746539 120.633032,136.198663 121.372421,134.807455 C121.410228,134.739091 121.442093,134.690666 121.466937,134.657624 C121.901173,134.814291 123.179577,135.865389 124.578422,138.602799 C125.895712,141.181833 126.68803,144.060529 126.596754,145.936552 M92.6528994,130.566036 C93.3744655,128.520811 94.3731001,127.299944 95.6239589,126.929069 C96.3017774,127.546624 97.4143719,129.475629 97.8891149,132.594739 C98.3152494,135.398804 98.6225632,142.19476 93.1227815,147.810866 C91.5613685,144.074771 90.7814721,135.868807 92.6528994,130.566036 M133.076807,145.013637 C133.236135,138.342446 127.909184,128.402314 122.192284,127.314186 C117.293088,126.380447 114.805413,131.732212 113.75817,135.004571 L113.748448,135.035905 C113.571297,135.626115 113.411969,136.220312 113.262903,136.8128 C113.233198,134.196167 113.715502,131.516296 114.705495,129.096779 C116.137286,125.596539 118.514241,123.056246 121.402126,121.937924 C125.777971,120.584885 130.337989,121.743656 133.312289,124.96759 C136.147244,128.041124 136.988711,132.378253 135.629834,136.883443 C134.562607,139.202693 134.990362,141.71906 136.631709,142.659635 C137.825858,143.343845 139.753455,143.160402 141.258158,140.392228 L141.332691,140.238409 C144.53005,132.698994 143.062073,124.627479 137.502341,119.173737 C131.704428,113.487558 123.417759,112.388606 116.39113,116.37309 L116.304715,116.426073 C111.179219,119.773062 107.772843,125.220537 106.713718,131.765255 C105.822022,137.271409 106.638105,143.294282 108.951869,148.454627 C107.016711,151.255275 104.217401,153.271444 101.624408,153.681628 C100.312519,153.888999 99.0686812,153.689604 97.9085583,153.08971 C103.704312,147.073104 106.076406,139.697193 104.78072,131.649606 C104.55496,130.124518 103.967338,127.170622 102.568493,124.528921 C101.087554,121.732832 99.0535585,120.015185 96.6874048,119.562273 L96.5621029,119.543473 C93.2632061,119.186841 90.2640617,120.946645 88.1182665,124.498157 C84.3289639,130.76771 83.3692161,142.908025 87.6035565,151.913848 C83.9157917,153.834308 80.2696141,154.259305 76.5008352,153.215044 C75.3153279,152.887466 74.0779715,153.41216 73.4239172,154.521936 C72.7785043,155.61747 72.8773416,157.000133 73.6707403,157.962927 C76.1238493,160.94132 84.7259333,161.959375 92.1079441,157.641046 C94.8365012,159.854332 97.8491479,161.000569 100.933627,161 C101.331137,161 101.729726,160.981199 102.128316,160.943029 C106.160661,160.557342 110.1579,158.208468 113.524309,154.279814 C117.751088,157.760683 123.214683,158.845962 127.31454,156.881635 C129.610481,155.781544 133.404105,152.777514 133.076807,145.013637" id="Fill-13" fill="#3D3D3D"></path>
                <path d="M215.954891,148.166715 C213.700468,144.525373 212.532951,137.897349 213.239274,131.868422 C213.782727,127.227485 215.322051,123.714324 217.612668,121.824611 C219.052734,123.04426 220.006929,125.016493 220.454414,127.704452 C221.585738,134.495866 219.130605,143.266115 215.954891,148.166715 M247.882035,117.103354 C246.280194,114.624447 244.074578,113.172641 241.67209,113.014752 C239.099603,112.844761 236.498599,114.14858 234.345628,116.682501 C232.214592,119.190015 230.584784,122.812103 229.628395,127.161469 C229.60646,127.226385 229.585621,127.291301 229.566427,127.354566 C229.129362,128.792618 229.928363,130.297787 231.38543,130.781906 C232.709787,131.221463 234.059369,130.570654 234.524402,129.265734 L234.60008,129.051732 C234.73279,128.672689 234.847403,128.345909 235.00808,128.082394 L235.065661,127.987771 L235.110081,127.886546 C238.117988,121.047271 240.32854,119.719245 241.077089,119.975058 C241.901316,120.255076 243.04635,122.191551 243.612835,125.78008 C244.1859,129.417571 244.013158,133.723477 243.149447,137.298252 L243.132996,137.375821 C241.973155,143.417952 237.261955,151.220514 230.815655,153.779191 C227.507231,155.092362 224.226226,154.821696 221.040092,152.977644 C227.61965,143.115378 229.543395,132.200703 226.305164,122.792848 L226.28268,122.730683 C225.150259,119.822671 223.148095,116.090006 220.040929,114.823045 C218.512572,114.199193 216.862473,114.253106 215.269955,114.978183 L215.148761,115.039248 C211.140045,117.278297 208.233041,122.045215 206.963523,128.463088 C205.241037,137.172272 206.978878,146.92176 211.293046,153.335782 C208.693138,155.262904 204.380068,157.402378 200.658707,157.402378 C200.62361,157.402378 200.587965,157.401828 200.552868,157.401278 L200.523804,157.401278 C199.436351,157.401278 198.476672,158.095548 198.130091,159.136403 C197.785155,160.173958 198.141607,161.303934 199.016286,161.948142 C200.069739,162.723282 201.462644,163 202.916969,163 C205.032649,163 207.276653,162.413006 208.779784,161.922836 C211.726272,160.962301 214.487405,159.558907 216.262537,158.157163 C222.452739,162.261169 229.625105,162.565394 236.138308,158.943306 C240.769992,156.367025 244.784192,151.925787 247.441679,146.437642 C250.252167,140.632619 251.433395,134.015598 250.858136,127.306154 C250.501684,123.040959 249.500328,119.608118 247.882035,117.103354" id="Fill-15" fill="#3D3D3D"></path>
                <path d="M275.21585,141.223459 C275.163163,140.221222 275.1676,139.20311 275.172591,138.145041 C275.173146,138.014219 275.1737,137.882302 275.174255,137.749291 L281.837847,137.749291 L281.961524,141.223459 L275.21585,141.223459 Z M302.820813,145.843277 C302.10038,143.453999 298.272489,142.994207 292.520115,142.303424 C291.217345,142.146875 289.881854,141.986495 288.643973,141.800936 C288.559673,140.527202 288.516413,139.228837 288.515859,137.88285 C289.524687,137.909123 290.545717,137.971524 291.543453,138.031735 C293.346478,138.141209 295.211618,138.254515 297.028507,138.163651 C298.006833,138.114388 298.901412,137.663354 299.483194,136.924949 C300.068303,136.183808 300.204182,135.305276 299.856444,134.515966 C299.195353,133.016167 297.529317,132.225763 289.404338,131.508706 C289.089876,131.48079 288.780406,131.453421 288.494229,131.427147 C288.571874,126.715371 288.87358,121.776436 290.424258,116.962302 L290.464745,116.837501 L290.484156,116.708321 C290.895119,114.032221 289.669439,113.283964 288.902974,113.075963 C286.730582,112.487538 284.750638,115.399008 284.131143,116.901544 C282.593775,120.634072 282.34753,124.65397 282.109049,128.541404 C282.055807,129.413367 282.004229,130.255224 281.93934,131.080661 L275.267429,131.080661 C275.374468,126.193726 275.63846,120.200553 276.479243,114.461908 L276.493663,114.329991 C276.619004,112.380253 275.559706,111.574522 274.917472,111.267994 L274.832618,111.230773 C273.935265,110.861297 273.001863,110.937381 272.203785,111.445342 C269.879431,112.924888 268.91608,117.956876 268.521755,130.675059 C268.513991,130.907692 268.507335,131.132114 268.50068,131.345589 C266.062632,131.555232 264.039983,131.889676 261.586961,132.295279 L261.177661,132.363153 L261.025699,132.395448 C260.789437,132.456754 260.528772,132.490691 260.258679,132.522438 C259.039655,132.66585 258.161159,133.648929 258.169478,134.859715 C258.177243,136.072691 259.070713,137.045918 260.293619,137.174003 C263.063322,137.463015 265.784774,137.578511 268.53562,137.652953 L268.53562,141.650957 C268.078625,141.685988 267.551749,141.717736 267.079225,141.746199 C265.29783,141.853484 263.081069,141.98759 261.269171,142.345024 C258.365809,142.917027 256.930488,144.092235 257.002587,145.839445 C257.048065,146.946778 257.825068,147.9211 258.935944,148.264302 C261.370664,149.015296 263.839771,148.781568 266.22735,148.554956 C267.24117,148.458619 268.216167,148.365566 269.14125,148.354071 C269.19061,148.840137 269.240525,149.414877 269.285448,149.927217 C269.821752,156.075297 270.340308,159.211737 271.834417,160.409933 C272.344655,160.81882 272.97136,161.003284 273.59751,160.927747 C274.656808,160.800757 275.500363,159.963278 275.648443,158.891524 C276.000063,156.347888 275.813716,153.880336 275.634023,151.494342 C275.54695,150.339935 275.46265,149.229318 275.438247,148.134575 C277.853557,148.099543 280.185121,148.082027 282.518903,148.17508 C282.573809,148.617357 282.630934,149.132433 282.683067,149.59332 C283.419029,156.159044 284.07901,159.481591 285.838221,160.606987 C286.245856,160.867536 286.697305,161 287.157074,161 C287.405537,161 287.657883,160.961137 287.905237,160.882315 C288.769868,160.608082 289.41543,159.874604 289.588467,158.970346 C290.067092,156.479257 289.743202,154.036337 289.42985,151.67388 C289.289534,150.619095 289.154765,149.602626 289.092649,148.611883 C289.636163,148.685231 290.252885,148.776642 290.808046,148.858748 C297.750605,149.888354 301.080459,150.058586 302.465865,148.343671 C303.02269,147.655077 303.149695,146.74863 302.820813,145.843277 L302.820813,145.843277 Z" id="Fill-17" fill="#3D3D3D"></path>
                <path d="M76.9825643,147.451211 L77.0004711,147.421991 C81.1060024,140.536789 82.1218039,132.732287 79.7179573,126.543305 C78.1947976,122.621105 74.5955392,117.46774 66.0985111,115.194214 L66.0599844,115.184099 C65.8744053,115.139707 65.6915393,115.093068 65.5113865,115.046991 C64.0457454,114.673314 62.2235971,114.208607 60.446487,115.379647 C59.4968862,115.974158 58.9493735,116.966508 58.9417767,118.107205 C58.9314668,119.726095 60.1209096,121.153933 61.7080995,121.42815 C62.3505723,121.53941 63.1840505,121.672585 63.4521093,121.715291 C67.3134575,122.779005 70.1785388,124.652445 71.968672,127.284477 C73.5531488,129.614195 74.2156989,132.484481 73.886323,135.585154 C73.0202871,143.730179 65.4044885,152.414085 54.1585017,152.847325 L54.0874173,152.851258 C48.5178729,153.318214 44.0791674,150.927807 41.5868722,146.119461 C38.4016397,139.975432 39.2318622,131.656773 43.6021964,125.875744 C45.5735677,123.502195 47.8325324,121.786655 50.2238986,119.969969 C50.9900908,119.388382 51.7817866,118.787128 52.5696839,118.158902 L52.7823945,117.979087 C53.2653343,117.571696 53.812847,117.11036 53.9674963,116.228708 C54.1199751,115.361104 53.7868008,114.454727 53.0971193,113.863588 C50.1202564,111.307415 45.2121768,115.046429 42.5755423,117.05473 L42.3660875,117.214315 C34.3606813,123.508377 30.9486299,135.56942 34.2526981,145.893007 C35.5609767,149.979287 37.860096,153.421045 40.902617,155.84629 C44.2994748,158.554181 48.4712068,159.951113 53.3011479,159.997752 C53.4161852,159.999438 53.5317652,160 53.6468026,160 C62.9376969,160 72.2806837,154.988801 76.9825643,147.451211" id="Fill-19" fill="#3D3D3D"></path>
                <path d="M203.834187,127.593728 C204.286215,125.217527 203.948412,121.017894 201.116063,119.86424 L201.018078,119.827607 C200.201721,119.555322 199.357754,119.66194 198.641006,120.127229 C196.398188,121.583787 195.712837,126.477799 194.923548,133.778084 C194.696721,135.874893 194.482888,137.855243 194.229535,139.122623 C193.410471,143.221652 192.065214,147.259444 190.354544,150.808437 C190.06438,149.17637 189.888441,147.498377 189.706547,145.764067 C189.585284,144.604398 189.459691,143.405362 189.296744,142.213981 C188.604897,134.746389 187.174106,128.887899 185.041183,124.800352 C182.494668,119.919462 179.387854,118.466731 177.229487,118.107513 C171.926411,117.225049 166.06412,121.839122 162.642781,129.589387 C160.341498,134.802704 159.504028,140.633309 160.284656,146.00792 C161.210908,152.384734 164.376729,157.921731 169.439986,162.01912 C170.222779,162.65281 171.169602,163 172.111553,163 L172.158651,163 C173.571577,162.982504 174.154612,162.205564 174.376566,161.743555 C175.117135,160.20389 173.859035,158.54722 172.52677,156.793774 C172.204666,156.368944 171.900968,155.969266 171.717991,155.683312 L171.602142,155.523113 C168.325885,151.534529 166.604389,146.432749 166.753802,141.157102 C166.899425,136.007754 168.788199,131.022434 172.072576,127.113129 C173.351789,125.799822 175.166398,124.363494 176.619925,124.870337 C177.640372,125.225728 179.609266,126.869823 181.324266,133.882514 C182.496292,138.675376 183.086906,144.098102 183.439867,147.338177 C183.484799,147.750431 183.525941,148.128239 183.564377,148.466134 L183.584407,148.596262 C183.646663,148.918848 183.714332,149.408195 183.792827,149.974087 C184.036977,151.733001 184.371532,154.140914 185.126175,156.17922 C186.519072,159.938167 188.710461,160.499685 190.306905,160.311054 L190.398394,160.297386 C193.285419,159.786169 195.876325,155.965439 198.552765,148.274223 C201.136634,140.848731 202.97019,132.129615 203.834187,127.593728" id="Fill-21" fill="#3D3D3D"></path>
                <path d="M153.33872,168.032021 C145.257342,167.896545 136.621518,168.230573 134.990096,168.298037 C133.153665,168.354532 131.520621,169.432857 131.107356,170.863311 C130.762248,172.059561 131.260437,173.261845 132.439648,174.07909 L132.78097,174.315488 L133.192612,174.359367 C136.766485,174.738372 140.339817,174.575471 143.79577,174.417507 C145.922676,174.319876 147.931661,174.227182 149.825971,174.268318 L150.041258,174.276546 C154.255583,174.430122 157.299894,174.540916 161.2681,174.735081 L161.433081,174.74276 L161.596439,174.716981 C161.853378,174.675844 162.660434,174.762505 163.25058,174.82613 C164.033294,174.9095 164.882542,175 165.710694,175 C167.277746,175 168.767987,174.675844 169.595057,173.366057 C170.088378,172.60366 170.133815,171.700302 169.715683,170.945584 C168.969751,169.597403 167.090587,168.262386 153.33872,168.032021" id="Fill-23" fill="#3D3D3D"></path>
                <path d="M191.999725,118 C195.308133,118 198,115.308257 198,112 C198,108.691743 195.308133,106 191.999725,106 C188.691316,106 186,108.691743 186,112 C186,115.308257 188.691316,118 191.999725,118" id="Fill-25" fill="#3D3D3D"></path>
                <path d="M122,162 C118.69144,162 116,164.692294 116,168 C116,171.308257 118.69144,174 122,174 C125.30856,174 128,171.308257 128,168 C128,164.692294 125.30856,162 122,162" id="Fill-27" fill="#3D3D3D"></path>
                <path d="M50,134.000283 C50,137.308538 52.4671733,140 55.4997404,140 C58.5328267,140 61,137.308538 61,134.000283 C61,130.691462 58.5328267,128 55.4997404,128 C52.4671733,128 50,130.691462 50,134.000283" id="Fill-29" fill="#3D3D3D"></path>
                <path d="M239.999738,109 C243.308637,109 246,106.30823 246,103 C246,99.6917701 243.308637,97 239.999738,97 C236.690839,97 234,99.6917701 234,103 C234,106.30823 236.690839,109 239.999738,109" id="Fill-31" fill="#3D3D3D"></path>
            </g>
        </g>
    </g>
</svg>