<svg xmlns="http://www.w3.org/2000/svg" viewBox="0 0 266 149.5"><defs><style>.cls-1{fill:#3d3d3d;}.cls-2{fill:#fcfcfc;}.cls-3{fill:#17c37b;}.cls-4{fill:#efd30a;}.cls-5{fill:#ff4431;}</style></defs><title>main logo</title><g id="Layer_2" data-name="Layer 2"><g id="Layer_1-2" data-name="Layer 1"><path class="cls-1" d="M265.5,115.43a9.08,9.08,0,0,0-2.53-4,8.9,8.9,0,0,0-.24-6.46,9.66,9.66,0,0,0-6.33-5.4A20.56,20.56,0,0,0,254,99a25.43,25.43,0,0,1,.94-4.36l0-.11.16-.52.08-.54,0-.11a10.18,10.18,0,0,0-1.29-7.12,8.7,8.7,0,0,0-5.07-3.75,8.85,8.85,0,0,0-2.34-.31,9.37,9.37,0,0,0-5.28,1.69,9.2,9.2,0,0,0-3.17-2.5l-.09,0-.09,0-.08,0-.08,0-.08,0a9.36,9.36,0,0,0-3.64-.74h0a9.23,9.23,0,0,0-5,1.5c-1.72,1.1-4.12,3.26-5.25,9.21a63.09,63.09,0,0,0-.85,7.79l-.38.06-.35.06-.16,0-.16,0-.13,0h0a9.83,9.83,0,0,0-1.13.21,24.7,24.7,0,0,0-3.48-10.25,17,17,0,0,0-1.75-2.24,12.36,12.36,0,1,0-22-.18,12.92,12.92,0,0,0-3.58-2.19,11.78,11.78,0,0,0-4.49-.88,12.24,12.24,0,0,0-5.11,1.12l-.13.06-.13.06-.1.06-.13.06-.12.07a18.17,18.17,0,0,0-4.95,4.09c0-.13,0-.26,0-.4a12.1,12.1,0,0,0-24-2.08h-.05a14.28,14.28,0,0,0-2.27-.18h0c-7.19,0-14.07,5.42-18,14.16a33.25,33.25,0,0,0-2.59,18.08,28.28,28.28,0,0,0,4,11l-3-.08c-1.14,0-2.37,0-3.64,0-6,0-11.66.22-12.82.27a11.49,11.49,0,0,0-1.18.1h0a15,15,0,0,0,3.16-3.4,16.22,16.22,0,0,0,2.47-6,10.82,10.82,0,0,0,6.66-5.36l.09-.15.08-.16.06-.12.08-.16.07-.16a22.58,22.58,0,0,0,1.68-13.56A21.79,21.79,0,0,0,118.8,89a22.78,22.78,0,0,0-15.54-6.16,23.39,23.39,0,0,0-11,2.8l-.09,0-.09,0-.08,0-.09,0-.09.06A24.84,24.84,0,0,0,86,90.88a13.45,13.45,0,0,0-6.56-3.26l-.13,0-.14,0h-.11l-.13,0-.13,0a14,14,0,0,0-1.44-.07,14.34,14.34,0,0,0-10.73,5,21.5,21.5,0,0,0-2.16-2.32,25.64,25.64,0,0,0-11.22-5.89h-.2l-.35-.09h0a15.5,15.5,0,0,0-3.86-.55,10.88,10.88,0,0,0-4.33.87,10.07,10.07,0,0,0-6.43-2.25c-4.71,0-8.77,3-11.19,4.77l-.19.14,0,0,0,0a28,28,0,0,0-9.72,14.41,29.68,29.68,0,0,0,.24,17.51,23.74,23.74,0,0,0,23.16,16.66h.37a32.45,32.45,0,0,0,13.86-3.16,17.62,17.62,0,0,0,10.38,2.95,26.4,26.4,0,0,0,8.8-1.55A18.88,18.88,0,0,0,82,135.89c.56,0,1.12,0,1.68-.08a19.28,19.28,0,0,0,4.5-1c0,.14,0,.27,0,.41A12.09,12.09,0,0,0,105,146.35a9.86,9.86,0,0,0,1.4,1.15l.3.2,1.44,1,1.74.18.36,0a47.91,47.91,0,0,0,5,.24c1.86,0,3.64-.08,5.36-.16h0c1.46-.07,2.85-.13,4.09-.13h.85c3.65.13,6.28.22,9.7.39h.15l.7,0,.17,0,.32,0h0a28.18,28.18,0,0,0,2.87.18c5.45,0,8.11-2.84,9.23-4.57a9,9,0,0,0,1.22-7,8.74,8.74,0,0,0,3.23-3.58.89.89,0,0,1,.08-.17,10.58,10.58,0,0,0,.89.74,10.39,10.39,0,0,0,6.3,2.11,10.64,10.64,0,0,0,1.26-.07h.1l.1,0h.18l.1,0a10.31,10.31,0,0,0,1.83-.5,9.93,9.93,0,0,0,.86.72,12.35,12.35,0,0,0,7.47,2.25,23.65,23.65,0,0,0,7.22-1.27,32.57,32.57,0,0,0,4.58-1.88,22.78,22.78,0,0,0,8.87,1.82,23.36,23.36,0,0,0,11.44-3,30.59,30.59,0,0,0,11.11-11,9.2,9.2,0,0,0,3.74,2.25,17,17,0,0,0,4.61.75c.55,3.45,1.59,6.48,4.13,8.55a9,9,0,0,0,5.64,2,7.83,7.83,0,0,0,1.08-.07,8.82,8.82,0,0,0,4.79-2.15,8.83,8.83,0,0,0,1.07.81,9,9,0,0,0,13.78-5.94,19.86,19.86,0,0,0,.3-2.46h.4c1.47,0,6,0,8.93-3.72A9.11,9.11,0,0,0,265.5,115.43Z"/><path class="cls-2" d="M109.93,115.45c.14-5.55-4.54-13.84-9.56-14.74-4.31-.78-6.49,3.68-7.41,6.4v0c-.16.49-.3,1-.43,1.48a15.84,15.84,0,0,1,1.27-6.43,10.56,10.56,0,0,1,5.88-6,10.43,10.43,0,0,1,10.47,2.52,9.6,9.6,0,0,1,2,9.93c-.93,1.93-.56,4,.88,4.81,1,.57,2.75.42,4.07-1.89l.06-.12a15,15,0,0,0-3.36-17.55,15.86,15.86,0,0,0-18.55-2.34l-.08,0a18.42,18.42,0,0,0-8.43,12.78,23.81,23.81,0,0,0,2,13.9,10.53,10.53,0,0,1-6.44,4.35,5.37,5.37,0,0,1-3.26-.49c5.09-5,7.18-11.16,6-17.86a18.62,18.62,0,0,0-1.95-5.93A7.62,7.62,0,0,0,78,94.25h-.11c-2.89-.3-5.53,1.16-7.41,4.12-3.33,5.23-4.18,15.34-.46,22.84a13.49,13.49,0,0,1-9.75,1.09,2.45,2.45,0,0,0-2.71,1.08,2.42,2.42,0,0,0,.22,2.87c2.16,2.48,9.71,3.33,16.2-.27a12.63,12.63,0,0,0,7.76,2.8c.35,0,.7,0,1-.05,3.54-.32,7.05-2.28,10-5.55,3.71,2.9,8.51,3.81,12.12,2.17C106.88,124.42,110.22,121.92,109.93,115.45Zm-35.52-12c.63-1.71,1.51-2.72,2.61-3a8.5,8.5,0,0,1,2,4.72,14.27,14.27,0,0,1-4.19,12.67C73.45,114.67,72.77,107.84,74.41,103.42Zm29.83,12.8v.07c0,1.88-.72,3.22-2,3.76-1.64.7-3.94,0-5.71-1.68l-.14-.12c-.94-.69-.94-.69.55-4.61.25-.66.54-1.4.85-2.24l0-.05a31,31,0,0,1,1.85-4.4.48.48,0,0,1,.08-.12c.38.13,1.5,1,2.73,3.28A13.21,13.21,0,0,1,104.24,116.22Z"/><path class="cls-2" d="M211,92.7a7,7,0,0,0-5.37-3.52c-2.23-.15-4.48,1-6.34,3.16a20.88,20.88,0,0,0-4.09,9,1.09,1.09,0,0,1-.05.17,2.37,2.37,0,0,0,1.58,3,2.11,2.11,0,0,0,2.71-1.3l.07-.19a4.17,4.17,0,0,1,.35-.84l.05-.08,0-.08c2.6-5.91,4.51-7.05,5.16-6.83s1.71,1.91,2.2,5a27,27,0,0,1-.4,9.93l0,.07c-1,5.21-5.08,11.94-10.66,14.15a9.34,9.34,0,0,1-8.46-.69c5.7-8.51,7.36-17.92,4.56-26l0,0c-1-2.51-2.71-5.73-5.4-6.82a5.09,5.09,0,0,0-4.13.13l-.11,0c-3.47,1.93-6,6-7.08,11.58-1.49,7.52,0,15.93,3.75,21.46-2.25,1.66-6,3.51-9.21,3.51H170a2.18,2.18,0,0,0-1.31,3.92,5.67,5.67,0,0,0,3.38.91,17.43,17.43,0,0,0,5.07-.93,22.13,22.13,0,0,0,6.48-3.25,16.07,16.07,0,0,0,17.2.68A24.52,24.52,0,0,0,210.61,118a31.6,31.6,0,0,0,3-16.51A19.14,19.14,0,0,0,211,92.7Zm-27.63,26.8c-2-3.14-3-8.86-2.35-14.06.47-4,1.8-7,3.79-8.66a8.19,8.19,0,0,1,2.46,5.07C188.23,107.71,186.11,115.27,183.36,119.5Z"/><path class="cls-2" d="M258.66,117.4c-.62-2.07-3.9-2.47-8.82-3.07-1.11-.13-2.26-.27-3.32-.43-.07-1.11-.1-2.23-.11-3.4.87,0,1.74.08,2.6.13a43.08,43.08,0,0,0,4.69.11,2.82,2.82,0,0,0,2.1-1.07,2,2,0,0,0,.32-2.09c-.57-1.3-2-2-9-2.61l-.77-.07a43,43,0,0,1,1.65-12.54l0-.11,0-.11c.35-2.32-.7-3-1.35-3.15-1.86-.51-3.56,2-4.09,3.32-1.31,3.23-1.52,6.72-1.73,10.09,0,.76-.09,1.49-.14,2.2h-5.71a122.89,122.89,0,0,1,1-14.41l0-.11a2.54,2.54,0,0,0-1.35-2.66l-.07,0a2.37,2.37,0,0,0-2.25.19c-2,1.28-2.82,5.64-3.15,16.67,0,.2,0,.4,0,.58-2.09.18-3.82.47-5.92.82l-.35.06-.13,0a5.67,5.67,0,0,1-.66.11,2,2,0,0,0,0,4c2.37.26,4.7.36,7.06.42v3.47l-1.25.08a38.63,38.63,0,0,0-5,.52c-2.49.49-3.71,1.51-3.65,3a2.33,2.33,0,0,0,1.65,2.1,15.5,15.5,0,0,0,6.24.25c.87-.08,1.7-.16,2.5-.17,0,.42.08.92.12,1.36.46,5.33.9,8.05,2.18,9.09a2,2,0,0,0,1.51.45,2,2,0,0,0,1.75-1.77,29.84,29.84,0,0,0,0-6.41c-.07-1-.15-2-.17-2.91,2.07,0,4.07,0,6.06,0,.05.39.1.83.14,1.23.63,5.7,1.2,8.58,2.7,9.55a2.06,2.06,0,0,0,1.77.24,2.15,2.15,0,0,0,1.44-1.66,19.93,19.93,0,0,0-.13-6.32c-.12-.92-.24-1.8-.29-2.66l1.47.22c5.94.89,8.79,1,10-.45A2.2,2.2,0,0,0,258.66,117.4Zm-23.63-4c0-.87,0-1.76,0-2.67v-.35h5.7l.11,3Z"/><path class="cls-2" d="M60.8,118v0c3.59-5.81,4.48-12.4,2.38-17.63-1.33-3.31-4.48-7.67-11.91-9.59h0l-.48-.12a5.32,5.32,0,0,0-4.43.28A2.64,2.64,0,0,0,45,93.22,2.88,2.88,0,0,0,47.44,96l1.52.24A12.69,12.69,0,0,1,56.41,101a10,10,0,0,1,1.68,7c-.76,6.88-7.42,14.21-17.26,14.58h-.06c-4.87.39-8.75-1.63-10.93-5.69A16.13,16.13,0,0,1,31.6,99.79a32.64,32.64,0,0,1,5.79-5c.67-.49,1.37-1,2-1.53l.19-.15a2.48,2.48,0,0,0,1-1.48,2.14,2.14,0,0,0-.76-2c-2.61-2.16-6.9,1-9.21,2.7l-.18.13c-7,5.32-10,15.5-7.1,24.22A16.85,16.85,0,0,0,40.08,128.6h.31C48.51,128.61,56.68,124.37,60.8,118Z"/><path class="cls-2" d="M172.5,101.54c.39-2.06.1-5.71-2.39-6.71l-.08,0a2.41,2.41,0,0,0-2.09.26c-2,1.26-2.56,5.51-3.26,11.85-.2,1.82-.38,3.54-.61,4.64a42.43,42.43,0,0,1-3.39,10.14c-.26-1.41-.41-2.87-.57-4.38-.11-1-.22-2-.36-3.08-.61-6.48-1.86-11.57-3.73-15.11-2.23-4.24-5-5.5-6.85-5.81-4.65-.77-9.79,3.24-12.79,10a26.2,26.2,0,0,0-2.06,14.26,21.52,21.52,0,0,0,8,13.89,3.79,3.79,0,0,0,2.35.85h0a2,2,0,0,0,1.94-1.09c.65-1.33-.45-2.77-1.62-4.29-.28-.37-.55-.72-.71-1l-.1-.14A18.67,18.67,0,0,1,140,113.31a19.79,19.79,0,0,1,4.66-12.19c1.12-1.14,2.71-2.38,4-1.94.89.31,2.62,1.73,4.12,7.82a92.8,92.8,0,0,1,1.86,11.68c0,.36.07.69.1,1l0,.11c.06.28.12.71.19,1.2a26.09,26.09,0,0,0,1.16,5.38c1.23,3.27,3.15,3.75,4.55,3.59h.08c2.53-.45,4.8-3.76,7.14-10.44A135.41,135.41,0,0,0,172.5,101.54Z"/><path class="cls-2" d="M128.38,136.36c-7.09-.12-14.67.17-16.1.23a3.59,3.59,0,0,0-3.41,2.22,2.48,2.48,0,0,0,1.17,2.78l.3.21.36,0a61.5,61.5,0,0,0,9.3,0c1.87-.08,3.63-.16,5.29-.12h.19c3.7.14,6.37.23,9.85.4h.15l.14,0a9.86,9.86,0,0,1,1.45.1,21.53,21.53,0,0,0,2.16.15,3.76,3.76,0,0,0,3.41-1.41,2,2,0,0,0,.1-2.1C142.09,137.71,140.44,136.56,128.38,136.36Z"/><circle class="cls-2" cx="162.26" cy="88.57" r="5.17"/><path class="cls-2" d="M100,129.88a5.17,5.17,0,1,0,5.17,5.17A5.18,5.18,0,0,0,100,129.88Z"/><path class="cls-2" d="M38.39,105.78a5,5,0,1,0,5-5A5,5,0,0,0,38.39,105.78Z"/><path class="cls-2" d="M204.12,86.37a5.43,5.43,0,1,0-5.43-5.43A5.44,5.44,0,0,0,204.12,86.37Z"/><path id="_Path_" data-name=" Path " class="cls-3" d="M39,37a13.67,13.67,0,0,0-12.63,8.49A13.68,13.68,0,0,0,13.67,37C6.12,37,0,44.57,0,52.13c0,16.52,22.81,30,26.32,30s26.31-13.44,26.31-30C52.63,44.57,46.51,37,39,37Z"/><path id="_Path_2" data-name=" Path " class="cls-4" d="M66.2,18.1a8.2,8.2,0,0,0-7.58,5.09A8.2,8.2,0,0,0,51,18.1c-4.52,0-8.19,4.51-8.19,9,0,9.91,13.68,18,15.78,18s15.79-8.06,15.79-18C74.41,22.61,70.73,18.1,66.2,18.1Z"/><path id="_Path_3" data-name=" Path " class="cls-5" d="M42.4,0a6.5,6.5,0,0,0-6,4,6.46,6.46,0,0,0-6-4c-3.58,0-6.48,3.57-6.48,7.15,0,7.84,10.81,14.21,12.47,14.21S48.89,15,48.89,7.15C48.89,3.57,46,0,42.4,0Z"/></g></g></svg>