<?xml version="1.0" encoding="UTF-8"?>
<svg width="32px" height="32px" viewBox="0 0 32 32" version="1.1" xmlns="http://www.w3.org/2000/svg" xmlns:xlink="http://www.w3.org/1999/xlink">
    <!-- Generator: Sketch 58 (84663) - https://sketch.com -->
    <title>instagram_black</title>
    <desc>Created with Sketch.</desc>
    <g id="Page-1" stroke="none" stroke-width="1" fill="none" fill-rule="evenodd">
        <g id="khune-bemun" transform="translate(-87.000000, -3775.000000)" fill="#000000" fill-rule="nonzero">
            <g id="instagram_black" transform="translate(87.000000, 3775.000000)">
                <path d="M22,0 L10,0 C4.478,0 0,4.478 0,10 L0,22 C0,27.522 4.478,32 10,32 L22,32 C27.522,32 32,27.522 32,22 L32,10 C32,4.478 27.522,0 22,0 Z M29,22 C29,25.86 25.86,29 22,29 L10,29 C6.14,29 3,25.86 3,22 L3,10 C3,6.14 6.14,3 10,3 L22,3 C25.86,3 29,6.14 29,10 L29,22 Z" id="Shape"></path>
                <path d="M16,7.83673469 C11.4918367,7.83673469 7.83673469,11.4918367 7.83673469,16 C7.83673469,20.5081633 11.4918367,24.1632653 16,24.1632653 C20.5081633,24.1632653 24.1632653,20.5081633 24.1632653,16 C24.1632653,11.4918367 20.5081633,7.83673469 16,7.83673469 Z M16,21.1020408 C13.1877551,21.1020408 10.8979592,18.8122449 10.8979592,16 C10.8979592,13.1857143 13.1877551,10.8979592 16,10.8979592 C18.8122449,10.8979592 21.1020408,13.1857143 21.1020408,16 C21.1020408,18.8122449 18.8122449,21.1020408 16,21.1020408 Z" id="Shape"></path>
                <circle id="Oval" cx="24.4897959" cy="7.51020408" r="1"></circle>
            </g>
        </g>
    </g>
</svg>